<?xml version="1.0" encoding="UTF-8"?> <!--Generator: Apple Native CoreSVG 232.5--> <!DOCTYPE svg PUBLIC "-//W3C//DTD SVG 1.1//EN"        "http://www.w3.org/Graphics/SVG/1.1/DTD/svg11.dtd"> <svg version="1.1" xmlns="http://www.w3.org/2000/svg" xmlns:xlink="http://www.w3.org/1999/xlink" width="46.5625" height="40.7227">  <g>   <rect height="40.7227" opacity="0" width="46.5625" x="0" y="0"/>   <path d="M3.98438 25.1758C3.39844 25.1758 3.14453 24.9609 3.14453 24.3359L3.14453 5.91797C3.14453 5.03906 3.69141 4.51172 4.55078 4.51172L42.0117 4.51172C42.8711 4.51172 43.418 5.03906 43.418 5.91797L43.418 24.3359C43.418 24.9609 43.1445 25.1758 42.5586 25.1758Z" fill="#000000" fill-opacity="0.2125"/>   <path d="M4.49219 33.7891L42.0508 33.7891C44.8633 33.7891 46.5625 32.0898 46.5625 29.2773L46.5625 5.85938C46.5625 3.04688 44.8633 1.36719 42.0508 1.36719L4.49219 1.36719C1.69922 1.36719 0 3.04688 0 5.85938L0 29.2773C0 32.0898 1.69922 33.7891 4.49219 33.7891ZM3.98438 25.1758C3.39844 25.1758 3.14453 24.9609 3.14453 24.3359L3.14453 5.91797C3.14453 5.03906 3.69141 4.51172 4.55078 4.51172L42.0117 4.51172C42.8711 4.51172 43.418 5.03906 43.418 5.91797L43.418 24.3359C43.418 24.9609 43.1445 25.1758 42.5586 25.1758ZM17.1094 38.4375L29.4531 38.4375L29.4531 33.5352L17.1094 33.5352ZM16.9922 40.7227L29.5703 40.7227C30.4297 40.7227 31.1328 40.0195 31.1328 39.1406C31.1328 38.2617 30.4297 37.5586 29.5703 37.5586L16.9922 37.5586C16.1328 37.5586 15.4102 38.2617 15.4102 39.1406C15.4102 40.0195 16.1328 40.7227 16.9922 40.7227Z" fill="#000000" fill-opacity="0.85"/>  </g> </svg>