<?xml version="1.0" encoding="UTF-8"?> <!--Generator: Apple Native CoreSVG 232.5--> <!DOCTYPE svg PUBLIC "-//W3C//DTD SVG 1.1//EN"        "http://www.w3.org/Graphics/SVG/1.1/DTD/svg11.dtd"> <svg version="1.1" xmlns="http://www.w3.org/2000/svg" xmlns:xlink="http://www.w3.org/1999/xlink" width="25.0977" height="41.3867">  <g>   <rect height="41.3867" opacity="0" width="25.0977" x="0" y="0"/>   <path d="M5.72266 38.2031C4.0625 38.2031 3.14453 37.3242 3.14453 35.7617L3.14453 5.58594C3.14453 4.02344 4.0625 3.14453 5.72266 3.14453L19.3945 3.14453C21.0352 3.14453 21.9531 4.02344 21.9531 5.58594L21.9531 35.7617C21.9531 37.3242 21.0352 38.2031 19.3945 38.2031Z" fill="#000000" fill-opacity="0.2125"/>   <path d="M5.3125 41.3477L19.7852 41.3477C22.9688 41.3477 25.0977 39.3164 25.0977 36.2695L25.0977 5.07812C25.0977 2.03125 22.9688 0 19.7852 0L5.3125 0C2.12891 0 0 2.03125 0 5.07812L0 36.2695C0 39.3164 2.12891 41.3477 5.3125 41.3477ZM5.72266 38.2031C4.0625 38.2031 3.14453 37.3242 3.14453 35.7617L3.14453 5.58594C3.14453 4.02344 4.0625 3.14453 5.72266 3.14453L19.3945 3.14453C21.0352 3.14453 21.9531 4.02344 21.9531 5.58594L21.9531 35.7617C21.9531 37.3242 21.0352 38.2031 19.3945 38.2031ZM9.53125 38.6523L15.5859 38.6523L15.5859 37.5391C15.5859 36.7383 15.0586 36.1914 14.2578 36.1914L10.8789 36.1914C10.0586 36.1914 9.53125 36.7383 9.53125 37.5391Z" fill="#000000" fill-opacity="0.85"/>  </g> </svg>