<?xml version="1.0" encoding="UTF-8"?> <!--Generator: Apple Native CoreSVG 232.5--> <!DOCTYPE svg PUBLIC "-//W3C//DTD SVG 1.1//EN"        "http://www.w3.org/Graphics/SVG/1.1/DTD/svg11.dtd"> <svg version="1.1" xmlns="http://www.w3.org/2000/svg" xmlns:xlink="http://www.w3.org/1999/xlink" width="40" height="40.0195">  <g>   <rect height="40.0195" opacity="0" width="40" x="0" y="0"/>   <path d="M0 20C0 25.6445 2.36328 30.7422 6.13281 34.3555C6.36719 34.5898 6.64062 34.5898 6.85547 34.3359L7.77344 33.3203C7.98828 33.0664 7.96875 32.832 7.73438 32.5977C4.45312 29.4141 2.38281 24.9219 2.38281 20C2.38281 10.3906 10.3516 2.40234 20 2.40234C29.6484 2.40234 37.6172 10.3906 37.6172 20C37.6172 24.9219 35.5273 29.4141 32.2461 32.5977C32.0117 32.832 31.9922 33.0664 32.207 33.3398L33.125 34.3555C33.3398 34.6094 33.5938 34.6094 33.8281 34.375C37.6172 30.7617 40 25.6445 40 20C40 9.04297 31.0352 0 20 0C8.96484 0 0 9.04297 0 20Z" fill="#007aff"/>   <path d="M5.68359 20C5.68359 23.9453 7.30469 27.4805 9.90234 30.0781C10.1367 30.332 10.4297 30.3125 10.6445 30.0781L11.543 29.082C11.7969 28.8281 11.7578 28.5742 11.5234 28.3203C9.39453 26.1914 8.08594 23.2422 8.08594 20C8.08594 13.4766 13.457 8.08594 20 8.08594C26.543 8.08594 31.9141 13.4766 31.9141 20C31.9141 23.2422 30.5859 26.2109 28.457 28.3203C28.2227 28.5742 28.1836 28.8281 28.4375 29.082L29.3555 30.0977C29.5703 30.332 29.8438 30.3516 30.0781 30.0977C32.6953 27.5 34.3164 23.9453 34.3164 20C34.3164 12.1484 27.8906 5.68359 20 5.68359C12.1094 5.68359 5.68359 12.1484 5.68359 20Z" fill="#007aff"/>   <path d="M11.3672 20C11.3672 22.2266 12.2461 24.2578 13.6719 25.7812C13.8867 26.0156 14.1602 26.0156 14.3945 25.7617L15.332 24.7852C15.5664 24.5508 15.5469 24.2969 15.3711 24.043C14.375 22.9883 13.7695 21.543 13.7695 20C13.7695 16.6016 16.6016 13.7695 20 13.7695C23.3984 13.7695 26.2305 16.6016 26.2305 20C26.2305 21.5625 25.625 23.0078 24.6094 24.0625C24.4141 24.3164 24.3945 24.5703 24.6484 24.8047L25.5859 25.7812C25.8203 26.0352 26.0742 26.0352 26.2891 25.7812C27.7539 24.2773 28.6328 22.2461 28.6328 20C28.6328 15.2734 24.7461 11.3672 20 11.3672C15.2539 11.3672 11.3672 15.2734 11.3672 20Z" fill="#007aff"/>   <path d="M8.04688 39.3359L31.9141 39.3359C32.832 39.3359 33.1836 38.3789 32.6172 37.7344L20.8203 24.3945C20.3711 23.8867 19.5898 23.8867 19.1406 24.3945L7.36328 37.7344C6.77734 38.3984 7.12891 39.3359 8.04688 39.3359Z" fill="#007aff"/>  </g> </svg>